<svg xmlns="http://www.w3.org/2000/svg" width="256" height="256" fill="none" viewBox="0 0 256 256">
<!-- SVG created with Arrow, by QuiverAI (https://quiver.ai) -->
  <path d="m248.7 207.9-100-175.5c-5.28-9.25-13.09-12.81-20.74-12.81h-0.05c-10.17 0-17.98 6.14-21.23 13.57l-99.27 174.6c-7.08 12.42 2.67 27.62 18.07 27.27 3.57-0.09 6.59-1.09 9.82-2.65l80.98-36.3c8.92-4.04 18.74-2.33 24.62 0.73l82.9 36.57c13.37 6.37 31.38-5.45 26.18-22.49-0.3-1.03-0.72-2.03-1.27-2.98z" fill="url(#paint0_linear_135_4089)"/>
  <path d="m181.8 146.6c-2.79 0-4.8 0.4-7.08 1.24l-32.09-48.75c3.54-4 4.7-8.18 4.4-12.45-0.77-10.04-8.68-18.58-18.92-18.58h-0.14c-11.11 0-18.34 9.29-18.34 19.13 0 5 1.52 8.2 3.9 11.1l-40.81 61.33c-1.12-0.15-2.28-0.25-3.45-0.25-10.77 0-18.48 8.64-18.48 18.77 0 10.35 8.22 18.33 18.19 18.33h0.29c9.78 0 17.63-7.18 19.21-15.87l74.14-12.94c1.17 9.54 9.48 16.11 18.4 16.11h0.24c10.87 0 18.79-9.08 17.37-19.96-1.12-8.54-7.87-17.21-16.83-17.21zm-53.74-68.7c6.27 0 8.09 5.62 8.09 9.14 0 5.51-4.79 7.92-7.89 7.92-5.23 0-8.52-4.15-8.52-7.82 0-4.37 2.91-9.24 8.32-9.24zm-59.03 108.6c-6.03-0.35-8.31-4.92-8.31-8.04 0-5.16 4.23-8.32 8.21-8.32h0.24c5.68 0 8.2 4.87 8.2 8.22 0 5.53-4.14 8.34-8.34 8.14zm95.2-29.75-77.58 13.39c-1.02-2.31-2.13-3.87-3.95-5.27l38.47-60.78c2.48 0.8 4.15 1 6.62 1 2.33 0 3.75-0.4 5.88-1l33.06 49.25c-1.07 1.3-1.65 1.9-2.5 3.41zm16.98 16.8c-6.02 0-9.16-4.67-9.16-7.58 0-5.12 3.8-9.37 9.21-9.37 6.07 0 8.14 5.36 8.14 8.87 0 4.92-4.14 8.08-8.19 8.08z" fill="#FEFFFE"/>
  <defs>
    <linearGradient id="paint0_linear_135_4089" x1="18.45" x2="236" y1="219.3" y2="54.83" gradientUnits="userSpaceOnUse">
      <stop stop-color="#00123D" offset="0"/>
      <stop stop-color="#00337B" offset=".2317"/>
      <stop stop-color="#00469E" offset=".3341"/>
      <stop stop-color="#005BBF" offset=".4665"/>
      <stop stop-color="#29B6F0" offset=".7508"/>
      <stop stop-color="#64F7E9" offset="1"/>
    </linearGradient>
  </defs>
</svg>